inDegrees=no
num_controls=7
num_derivatives=13
num_iterations=108
num_multipliers=7
num_parameters=0
num_slacks=7
num_states=26
objective=5.369895
objective_accelerations=0.587828
objective_balance=0.041357
objective_effort=0.229143
objective_height=4.466022
objective_ligament=0.045546
solver_duration=1213.394399
status=Solve_Succeeded
success=true
DataType=double
version=3
OpenSimVersion=4.4-2022-07-23-0e9fedc
endheader
time	/jointset/ground_pelvis/pelvis_tilt/value	/jointset/ground_pelvis/pelvis_tx/value	/jointset/ground_pelvis/pelvis_ty/value	/jointset/hip_l/hip_flexion_l/value	/jointset/hip_l/hip_adduction_l/value	/jointset/hip_l/hip_rotation_l/value	/jointset/back/lumbar_extension/value	/jointset/patellofemoral_l/patellar_flexion_l/value	/jointset/knee_l/knee_flexion_l/value	/jointset/knee_l/knee_adduction_l/value	/jointset/knee_l/knee_rotation_l/value	/jointset/ankle_l/ankle_angle_l/value	/jointset/subtalar_l/subtalar_angle_l/value	/jointset/ground_pelvis/pelvis_tilt/speed	/jointset/ground_pelvis/pelvis_tx/speed	/jointset/ground_pelvis/pelvis_ty/speed	/jointset/hip_l/hip_flexion_l/speed	/jointset/hip_l/hip_adduction_l/speed	/jointset/hip_l/hip_rotation_l/speed	/jointset/back/lumbar_extension/speed	/jointset/patellofemoral_l/patellar_flexion_l/speed	/jointset/knee_l/knee_flexion_l/speed	/jointset/knee_l/knee_adduction_l/speed	/jointset/knee_l/knee_rotation_l/speed	/jointset/ankle_l/ankle_angle_l/speed	/jointset/subtalar_l/subtalar_angle_l/speed	/forceset/tau_hip_flexion_l	/forceset/tau_hip_adduction_l	/forceset/tau_hip_rotation_l	/forceset/tau_knee_flexion_l	/forceset/tau_ankle_angle_l	/forceset/tau_subtalar_angle_l	/forceset/tau_lumbar_extension	lambda_cid13_p0	lambda_cid13_p1	lambda_cid13_p2	lambda_cid13_p3	lambda_cid13_p4	lambda_cid13_p5	lambda_cid14_p0	/jointset/ground_pelvis/pelvis_tilt/accel	/jointset/ground_pelvis/pelvis_tx/accel	/jointset/ground_pelvis/pelvis_ty/accel	/jointset/hip_l/hip_flexion_l/accel	/jointset/hip_l/hip_adduction_l/accel	/jointset/hip_l/hip_rotation_l/accel	/jointset/back/lumbar_extension/accel	/jointset/patellofemoral_l/patellar_flexion_l/accel	/jointset/knee_l/knee_flexion_l/accel	/jointset/knee_l/knee_adduction_l/accel	/jointset/knee_l/knee_rotation_l/accel	/jointset/ankle_l/ankle_angle_l/accel	/jointset/subtalar_l/subtalar_angle_l/accel	gamma_cid13_p0	gamma_cid13_p1	gamma_cid13_p2	gamma_cid13_p3	gamma_cid13_p4	gamma_cid13_p5	gamma_cid14_p0
0.5	-0.2167248929340723	0.03207435341875053	0.7858798348854648	0.8617477261934894	-0.4454783899281091	-0.2421348781180947	-0.248592575620778	0.8100387394696303	0.8100387394696013	-0.1272589229894335	-0.166810506625444	0.2214063329798584	0.02304353511934278	-0.4547568772486262	-0.06404312099775435	-0.4408854830897705	1.855448642528518	-0.2398128919271179	0.7581387406024137	-0.147005617932272	1.993108903113745	1.993108903113785	0.1181562915614709	-0.04915672387112676	0.7661356004639325	0.1538654928629815	-0.1137933659922934	0.03426949618939339	-0.01313578143828219	-0.2266175296818034	-0.005194588219033268	0.03347496265226443	0.1302187436390638	-34.01613561087741	-12.96706659692273	6.739963059143037	1.199665151215846	-524.7785754602667	-66.48937010290811	-25.20772169075811	0.3473957212492612	0.2978034145314816	-0.436458192725742	-0.8719511514950131	0.6610447829548362	-0.2644259560082454	0.9343726537785226	-1.322169992019626	-1.322169992019601	-0.01400420039762447	0.1246060102018868	-0.6132801349371368	0.5488079191992584	-4.988794711899174e-07	-6.127657409861921e-07	2.358049049053715e-06	4.372504759993794e-08	-4.990434543917921e-07	-8.145993595667164e-07	-3.775182773595007e-07
0.51	-0.2212539979423192	0.03144888181000711	0.7814501277053755	0.8802549571984242	-0.4478442689472118	-0.2345660672680956	-0.2500164636496103	0.829900596930655	0.8299005969306207	-0.1260813456662039	-0.1672956216021379	0.2290355325071823	0.02460785096447806	-0.4510026725934424	-0.06104879570837779	-0.4449602835874402	1.845736461969598	-0.2333510583685746	0.7555176231961683	-0.1377779677294692	1.978992254861532	1.978992254861548	0.1173571266359288	-0.04786600509742636	0.7595948841507452	0.1589655421260363	-0.1176335938959989	0.03592208146239768	-0.01310874073712842	-0.2293292801828303	-0.008225515389800483	0.03349650937299749	0.1332956169805306	-35.12632441753262	-12.74183591656413	6.658133397812191	1.659090276168829	-527.6671922040541	-66.14743860122884	-24.27913704661719	0.3985999215407797	0.3006182827445888	-0.3787383151743718	-1.06007499997532	0.6402462445817844	-0.2771523596130347	0.9160642189219611	-1.496887811557772	-1.496887811561454	-0.1131712470231527	0.131790803157161	-0.6909089759085566	0.4855984822719687	-4.771833297503779e-07	-4.90385741046997e-07	2.366778991245643e-06	6.644705408369581e-08	-4.814749580657331e-07	-7.233925265171317e-07	-3.66143446314626e-07
0.52	-0.2257437274872315	0.03085342769347824	0.7769825230529325	0.8986572216994002	-0.450145230910265	-0.2270267071375013	-0.2513482545733347	0.8496131927951938	0.8496131927951848	-0.1249118197139154	-0.1677677321926546	0.2365960365520958	0.02622216631272704	-0.4468817845827537	-0.05803962255484573	-0.4484649775605323	1.834455341735294	-0.2268294807189287	0.7522485967227118	-0.1285861969110323	1.963256583819891	1.963256583819882	0.1165460173747614	-0.04655584663560589	0.7523965039815945	0.163865393485625	-0.1214738217996795	0.03757466673540693	-0.01308170003598016	-0.2320410306838493	-0.01125644256056497	0.0335180560937382	0.1363724903220156	-36.23910550197064	-12.51514294893267	6.574920603032827	2.09006717842197	-530.6129236827962	-65.85593762171948	-23.35247556120592	0.4207323923501399	0.300772987362653	-0.3224368878102444	-1.185739086571585	0.6729936011752861	-0.3940077694505163	0.9271967769052244	-1.645974549905252	-1.645974549905263	-0.01639306752269189	0.1284939478258307	-0.7448129061297257	0.5087683385060696	-4.53120815124175e-07	-3.440999782223054e-07	2.383221468328368e-06	9.523171311480275e-08	-4.668980048207671e-07	-6.220328380478801e-07	-3.526506474994551e-07
0.53	-0.2301905807897724	0.0302881120515867	0.7724827503979682	0.9169391190221088	-0.4523806540657316	-0.2195228561443466	-0.2525883352902249	0.8691604976138976	0.8691604976138619	-0.1237505619009443	-0.1682263546181168	0.2440813844619956	0.02788454400505133	-0.4424341941165897	-0.05502315657586804	-0.451389886656987	1.821671566392956	-0.2202486809549771	0.7484189594568063	-0.1194487192837365	1.945943863363286	1.945943863363257	0.1157010427157924	-0.04516715581699932	0.7445706888452606	0.1685737133697714	-0.1250830436291657	0.03886638036920061	-0.01302487940177817	-0.2351227134144769	-0.01386960852096763	0.03347794612420807	0.1392559232799791	-37.22413568082077	-12.27799685370566	6.483135886445501	2.47005769352206	-533.5901069894359	-65.59992635891314	-22.42939419732014	0.4649213859761715	0.3021578606730176	-0.2626597525634326	-1.362641993982396	0.6512756832302447	-0.3931391511460869	0.9042073328415554	-1.812929164103141	-1.81292916410636	-0.1191837499372097	0.1447346035166645	-0.8168366315855277	0.4461625100066059	-4.289356509751741e-07	-2.200342158706115e-07	2.380324332287639e-06	1.199934084172594e-07	-4.538146907607948e-07	-5.261522895669217e-07	-3.390012632756657e-07
0.54	-0.234591328385201	0.02975297596098645	0.7679567002856394	0.9350855895442145	-0.4545501387197052	-0.2120604410130555	-0.2537376044154008	0.8885268735539054	0.8885268735538749	-0.1225978806515393	-0.168670954544468	0.2514854000576929	0.02959286463554519	-0.4376606431613688	-0.05200371229658602	-0.4537204690333991	1.807369981613921	-0.2136417804220232	0.7439614243514824	-0.1104238785684453	1.927070808084075	1.927070808084024	0.1148307046626954	-0.04375134681284996	0.7361300411409132	0.1730539811194235	-0.1286922654586647	0.04015809400299059	-0.01296805876754084	-0.2382043961451024	-0.01648277448136796	0.03343783615467413	0.1421393562379289	-38.21233804754787	-12.03947967112834	6.390202746624735	2.823706818727166	-536.6291896302827	-65.39368590603064	-21.51319712829155	0.4859244901614022	0.3013686474235828	-0.203571543801735	-1.489300973910846	0.6782137549757083	-0.5195873373342794	0.9046693945041676	-1.958041514426657	-1.958041514426671	-0.02146574634830996	0.1339175849343071	-0.8677794197323306	0.4631579116072168	-4.046147894818006e-07	-1.205522838294686e-07	2.356030177472024e-06	1.403041651263158e-07	-4.423839136714537e-07	-4.36333768307054e-07	-3.251786356210644e-07
